<mxfile host="app.diagrams.net" agent="Mozilla/5.0 (X11; Linux x86_64) AppleWebKit/537.36 (KHTML, like Gecko) Chrome/129.0.0.0 Safari/537.36" version="24.8.3">
  <diagram name="PÃ¡gina-1" id="H7-CP170TlRM3f6T8fQA">
    <mxGraphModel dx="940" dy="577" grid="1" gridSize="10" guides="1" tooltips="1" connect="1" arrows="1" fold="1" page="1" pageScale="1" pageWidth="827" pageHeight="1169" math="0" shadow="0">
      <root>
        <mxCell id="0" />
        <mxCell id="1" parent="0" />
        <mxCell id="YBTZp6XA4D2Odi7nZEeH-3" value="" style="rounded=0;whiteSpace=wrap;html=1;" vertex="1" parent="1">
          <mxGeometry x="517" y="90" width="920" height="300" as="geometry" />
        </mxCell>
        <mxCell id="YBTZp6XA4D2Odi7nZEeH-27" style="edgeStyle=orthogonalEdgeStyle;rounded=0;orthogonalLoop=1;jettySize=auto;html=1;entryX=0;entryY=0.5;entryDx=0;entryDy=0;" edge="1" parent="1" source="YBTZp6XA4D2Odi7nZEeH-1" target="YBTZp6XA4D2Odi7nZEeH-2">
          <mxGeometry relative="1" as="geometry" />
        </mxCell>
        <mxCell id="YBTZp6XA4D2Odi7nZEeH-1" value="Frontend&lt;div&gt;[Angular]&lt;/div&gt;" style="rounded=1;whiteSpace=wrap;html=1;" vertex="1" parent="1">
          <mxGeometry x="149" y="220" width="120" height="60" as="geometry" />
        </mxCell>
        <mxCell id="YBTZp6XA4D2Odi7nZEeH-26" style="edgeStyle=orthogonalEdgeStyle;rounded=0;orthogonalLoop=1;jettySize=auto;html=1;entryX=0;entryY=0.5;entryDx=0;entryDy=0;" edge="1" parent="1" source="YBTZp6XA4D2Odi7nZEeH-2" target="YBTZp6XA4D2Odi7nZEeH-6">
          <mxGeometry relative="1" as="geometry" />
        </mxCell>
        <mxCell id="YBTZp6XA4D2Odi7nZEeH-2" value="Backend API&lt;div&gt;[SpringBoot]&lt;/div&gt;" style="rounded=1;whiteSpace=wrap;html=1;fillColor=#e1d5e7;strokeColor=#9673a6;" vertex="1" parent="1">
          <mxGeometry x="309" y="220" width="120" height="60" as="geometry" />
        </mxCell>
        <mxCell id="YBTZp6XA4D2Odi7nZEeH-23" style="edgeStyle=orthogonalEdgeStyle;rounded=0;orthogonalLoop=1;jettySize=auto;html=1;" edge="1" parent="1" source="YBTZp6XA4D2Odi7nZEeH-6">
          <mxGeometry relative="1" as="geometry">
            <mxPoint x="627" y="250" as="targetPoint" />
          </mxGeometry>
        </mxCell>
        <mxCell id="YBTZp6XA4D2Odi7nZEeH-6" value="Peer Org1" style="rounded=1;whiteSpace=wrap;html=1;fillColor=#d5e8d4;strokeColor=#82b366;" vertex="1" parent="1">
          <mxGeometry x="567" y="140" width="120" height="60" as="geometry" />
        </mxCell>
        <mxCell id="YBTZp6XA4D2Odi7nZEeH-22" style="edgeStyle=orthogonalEdgeStyle;rounded=0;orthogonalLoop=1;jettySize=auto;html=1;" edge="1" parent="1" source="YBTZp6XA4D2Odi7nZEeH-7">
          <mxGeometry relative="1" as="geometry">
            <mxPoint x="777" y="250" as="targetPoint" />
          </mxGeometry>
        </mxCell>
        <mxCell id="YBTZp6XA4D2Odi7nZEeH-7" value="CA Org1" style="rounded=1;whiteSpace=wrap;html=1;fillColor=#d5e8d4;strokeColor=#82b366;" vertex="1" parent="1">
          <mxGeometry x="717" y="140" width="120" height="60" as="geometry" />
        </mxCell>
        <mxCell id="YBTZp6XA4D2Odi7nZEeH-15" style="edgeStyle=orthogonalEdgeStyle;rounded=0;orthogonalLoop=1;jettySize=auto;html=1;" edge="1" parent="1" source="YBTZp6XA4D2Odi7nZEeH-8">
          <mxGeometry relative="1" as="geometry">
            <mxPoint x="627" y="250" as="targetPoint" />
          </mxGeometry>
        </mxCell>
        <mxCell id="YBTZp6XA4D2Odi7nZEeH-8" value="Peer Org2" style="rounded=1;whiteSpace=wrap;html=1;fillColor=#dae8fc;strokeColor=#6c8ebf;" vertex="1" parent="1">
          <mxGeometry x="567" y="290" width="120" height="60" as="geometry" />
        </mxCell>
        <mxCell id="YBTZp6XA4D2Odi7nZEeH-16" style="edgeStyle=orthogonalEdgeStyle;rounded=0;orthogonalLoop=1;jettySize=auto;html=1;" edge="1" parent="1" source="YBTZp6XA4D2Odi7nZEeH-9">
          <mxGeometry relative="1" as="geometry">
            <mxPoint x="777" y="250" as="targetPoint" />
          </mxGeometry>
        </mxCell>
        <mxCell id="YBTZp6XA4D2Odi7nZEeH-9" value="CA Org2" style="rounded=1;whiteSpace=wrap;html=1;fillColor=#dae8fc;strokeColor=#6c8ebf;" vertex="1" parent="1">
          <mxGeometry x="717" y="290" width="120" height="60" as="geometry" />
        </mxCell>
        <mxCell id="YBTZp6XA4D2Odi7nZEeH-21" style="edgeStyle=orthogonalEdgeStyle;rounded=0;orthogonalLoop=1;jettySize=auto;html=1;" edge="1" parent="1" source="YBTZp6XA4D2Odi7nZEeH-10">
          <mxGeometry relative="1" as="geometry">
            <mxPoint x="927" y="250" as="targetPoint" />
          </mxGeometry>
        </mxCell>
        <mxCell id="YBTZp6XA4D2Odi7nZEeH-10" value="Dev Org1" style="rounded=1;whiteSpace=wrap;html=1;fillColor=#d5e8d4;strokeColor=#82b366;" vertex="1" parent="1">
          <mxGeometry x="867" y="140" width="120" height="60" as="geometry" />
        </mxCell>
        <mxCell id="YBTZp6XA4D2Odi7nZEeH-18" style="edgeStyle=orthogonalEdgeStyle;rounded=0;orthogonalLoop=1;jettySize=auto;html=1;" edge="1" parent="1" source="YBTZp6XA4D2Odi7nZEeH-11">
          <mxGeometry relative="1" as="geometry">
            <mxPoint x="927" y="250" as="targetPoint" />
          </mxGeometry>
        </mxCell>
        <mxCell id="YBTZp6XA4D2Odi7nZEeH-11" value="Dev Org2" style="rounded=1;whiteSpace=wrap;html=1;fillColor=#dae8fc;strokeColor=#6c8ebf;" vertex="1" parent="1">
          <mxGeometry x="867" y="290" width="120" height="60" as="geometry" />
        </mxCell>
        <mxCell id="YBTZp6XA4D2Odi7nZEeH-19" style="edgeStyle=orthogonalEdgeStyle;rounded=0;orthogonalLoop=1;jettySize=auto;html=1;" edge="1" parent="1" source="YBTZp6XA4D2Odi7nZEeH-12">
          <mxGeometry relative="1" as="geometry">
            <mxPoint x="1177" y="250" as="targetPoint" />
          </mxGeometry>
        </mxCell>
        <mxCell id="YBTZp6XA4D2Odi7nZEeH-12" value="Orderer" style="rounded=1;whiteSpace=wrap;html=1;fillColor=#f8cecc;strokeColor=#b85450;" vertex="1" parent="1">
          <mxGeometry x="1117" y="290" width="120" height="60" as="geometry" />
        </mxCell>
        <mxCell id="YBTZp6XA4D2Odi7nZEeH-20" style="edgeStyle=orthogonalEdgeStyle;rounded=0;orthogonalLoop=1;jettySize=auto;html=1;" edge="1" parent="1" source="YBTZp6XA4D2Odi7nZEeH-13">
          <mxGeometry relative="1" as="geometry">
            <mxPoint x="1327" y="250" as="targetPoint" />
          </mxGeometry>
        </mxCell>
        <mxCell id="YBTZp6XA4D2Odi7nZEeH-13" value="CA Orderer" style="rounded=1;whiteSpace=wrap;html=1;fillColor=#f8cecc;strokeColor=#b85450;" vertex="1" parent="1">
          <mxGeometry x="1267" y="290" width="120" height="60" as="geometry" />
        </mxCell>
        <mxCell id="YBTZp6XA4D2Odi7nZEeH-14" value="" style="endArrow=none;html=1;rounded=0;" edge="1" parent="1">
          <mxGeometry width="50" height="50" relative="1" as="geometry">
            <mxPoint x="547" y="249.5" as="sourcePoint" />
            <mxPoint x="1377" y="249.5" as="targetPoint" />
            <Array as="points">
              <mxPoint x="907" y="249.5" />
            </Array>
          </mxGeometry>
        </mxCell>
        <mxCell id="YBTZp6XA4D2Odi7nZEeH-28" value="Channel" style="text;html=1;align=center;verticalAlign=middle;whiteSpace=wrap;rounded=0;" vertex="1" parent="1">
          <mxGeometry x="1375" y="235" width="60" height="30" as="geometry" />
        </mxCell>
        <mxCell id="YBTZp6XA4D2Odi7nZEeH-29" value="&lt;b&gt;&lt;font style=&quot;font-size: 14px;&quot;&gt;Blockchain Network (IBM Hyperledger Fabric)&lt;/font&gt;&lt;/b&gt;" style="text;html=1;align=center;verticalAlign=middle;whiteSpace=wrap;rounded=0;" vertex="1" parent="1">
          <mxGeometry x="517" y="390" width="920" height="30" as="geometry" />
        </mxCell>
        <mxCell id="YBTZp6XA4D2Odi7nZEeH-30" value="&lt;div&gt;&lt;b&gt;&lt;font style=&quot;font-size: 14px;&quot;&gt;&lt;br&gt;&lt;/font&gt;&lt;/b&gt;&lt;/div&gt;&lt;b&gt;&lt;font size=&quot;3&quot;&gt;Hyperledger Client&lt;/font&gt;&lt;/b&gt;&lt;div&gt;&lt;br&gt;&lt;/div&gt;" style="text;html=1;align=center;verticalAlign=middle;whiteSpace=wrap;rounded=0;" vertex="1" parent="1">
          <mxGeometry x="309" y="290" width="120" height="30" as="geometry" />
        </mxCell>
        <mxCell id="YBTZp6XA4D2Odi7nZEeH-32" style="edgeStyle=orthogonalEdgeStyle;rounded=0;orthogonalLoop=1;jettySize=auto;html=1;exitX=0.5;exitY=0.5;exitDx=0;exitDy=0;exitPerimeter=0;entryX=0;entryY=0.5;entryDx=0;entryDy=0;" edge="1" parent="1" source="YBTZp6XA4D2Odi7nZEeH-31" target="YBTZp6XA4D2Odi7nZEeH-1">
          <mxGeometry relative="1" as="geometry">
            <mxPoint x="50" y="280" as="targetPoint" />
          </mxGeometry>
        </mxCell>
        <mxCell id="YBTZp6XA4D2Odi7nZEeH-31" value="Actor" style="shape=umlActor;verticalLabelPosition=bottom;verticalAlign=top;html=1;outlineConnect=0;" vertex="1" parent="1">
          <mxGeometry x="49" y="220" width="30" height="60" as="geometry" />
        </mxCell>
      </root>
    </mxGraphModel>
  </diagram>
</mxfile>
